SplineFontDB: 3.2
FontName: Essiah
FullName: Essiah
FamilyName: Essiah
Weight: Regular
Copyright: Copyright (c) 2023, Michael Chapman
UComments: "2023-12-3: Created with FontForge (http://fontforge.org)"
Version: 001.000
ItalicAngle: 0
UnderlinePosition: -102.4
UnderlineWidth: 51.2
Ascent: 819
Descent: 205
InvalidEm: 0
LayerCount: 2
Layer: 0 0 "Back" 1
Layer: 1 0 "Fore" 0
XUID: [1021 111 1703824445 6969350]
FSType: 0
OS2Version: 0
OS2_WeightWidthSlopeOnly: 0
OS2_UseTypoMetrics: 1
CreationTime: 1701637513
ModificationTime: 1704148061
PfmFamily: 17
TTFWeight: 400
TTFWidth: 5
LineGap: 94
VLineGap: 0
OS2TypoAscent: 839
OS2TypoAOffset: 0
OS2TypoDescent: -210
OS2TypoDOffset: 0
OS2TypoLinegap: 94
OS2WinAscent: 839
OS2WinAOffset: 0
OS2WinDescent: 210
OS2WinDOffset: 0
HheadAscent: 839
HheadAOffset: 0
HheadDescent: 210
HheadDOffset: 0
OS2Vendor: 'PfEd'
MarkAttachClasses: 1
DEI: 91125
LangName: 1033
Encoding: ISO8859-1
UnicodeInterp: none
NameList: AGL For New Fonts
DisplaySize: -72
AntiAlias: 1
FitToEm: 0
WinInfo: 56 14 7
BeginPrivate: 0
EndPrivate
Grid
608 1331 m 0
 608 -717 l 1024
160 1331 m 0
 160 -717 l 1024
-1024 544 m 0
 2048 544 l 1024
-1018 96 m 0
 2054 96 l 1024
-1024 368 m 0
 2048 368 l 1024
-1024 272 m 4
 2048 272 l 1028
432 1331 m 0
 432 -717 l 1024
336 1331 m 0
 336 -717 l 1024
-1024 320 m 0
 2048 320 l 1024
384 1331 m 0
 384 -717 l 1024
-1025 640 m 0
 2047 640 l 1024
704 1331 m 0
 704 -717 l 1024
64 1326 m 0
 64 -722 l 1024
EndSplineSet
BeginChars: 256 256

StartChar: o
Encoding: 111 111 0
Width: 768
Flags: HW
LayerCount: 2
Fore
SplineSet
432 539 m 5
 432 101 l 5
 533 123 608 212 608 320 c 4
 608 428 533 517 432 539 c 5
336 96 m 5
 336 544 l 5
 64 544 l 5
 64 640 l 5
 189 640 207 640 384 640 c 4
 561 640 704 497 704 320 c 4
 704 143 561 0 384 0 c 4
 207 0 189 0 64 0 c 5
 64 96 l 5
 336 96 l 5
EndSplineSet
Validated: 1
EndChar

StartChar: exclam
Encoding: 33 33 34
Width: 768
Flags: HW
LayerCount: 2
Fore
SplineSet
336 96 m 5
 432 96 l 5
 432 0 l 5
 336 0 l 5
 336 96 l 5
336 640 m 5
 432 640 l 5
 432 192 l 5
 336 192 l 5
 336 640 l 5
EndSplineSet
Validated: 1
EndChar

StartChar: numbersign
Encoding: 35 35 36
Width: 768
Flags: HW
LayerCount: 2
Fore
SplineSet
384 96 m 1
 469 272 l 1
 299 272 l 1
 384 96 l 1
608 368 m 1
 432 0 l 1
 336 0 l 1
 160 368 l 1
 608 368 l 1
EndSplineSet
Validated: 1
EndChar

StartChar: percent
Encoding: 37 37 38
Width: 768
Flags: HW
LayerCount: 2
Fore
SplineSet
512 96 m 1
 608 96 l 1
 608 0 l 1
 512 0 l 1
 512 96 l 1
160 640 m 1
 256 640 l 1
 256 544 l 1
 160 544 l 1
 160 640 l 1
160 0 m 1
 160 42 l 1
 512 640 l 1
 608 640 l 1
 608 598 l 1
 256 0 l 1
 160 0 l 1
EndSplineSet
Validated: 1
EndChar

StartChar: parenleft
Encoding: 40 40 41
Width: 768
Flags: HW
LayerCount: 2
Fore
SplineSet
522 0 m 5
 366 0 336 176 336 320 c 3
 336 464 366 640 522 640 c 5
 522 544 l 5
 458 544 432 448 432 320 c 3
 432 192 458 96 522 96 c 5
 522 0 l 5
EndSplineSet
Validated: 1
EndChar

StartChar: parenright
Encoding: 41 41 42
Width: 768
Flags: HW
LayerCount: 2
Fore
SplineSet
246 0 m 1
 246 96 l 1
 326 96 336 192 336 320 c 3
 336 448 310 544 246 544 c 1
 246 640 l 1
 402 640 432 464 432 320 c 3
 432 176 402 0 246 0 c 1
EndSplineSet
Validated: 1
EndChar

StartChar: asterisk
Encoding: 42 42 43
Width: 768
Flags: HW
LayerCount: 2
Fore
SplineSet
336 448 m 1
 256 448 l 1
 256 368 l 1
 336 368 l 1
 336 448 l 1
432 448 m 1
 432 368 l 1
 512 368 l 1
 512 448 l 1
 432 448 l 1
160 544 m 1
 608 544 l 1
 608 96 l 1
 160 96 l 1
 160 544 l 1
432 192 m 1
 512 192 l 1
 512 272 l 1
 432 272 l 1
 432 192 l 1
336 192 m 1
 336 272 l 1
 256 272 l 1
 256 192 l 1
 336 192 l 1
EndSplineSet
Validated: 1
EndChar

StartChar: plus
Encoding: 43 43 44
Width: 768
Flags: HW
LayerCount: 2
Fore
SplineSet
336 368 m 5
 336 544 l 5
 432 544 l 1
 432 368 l 1
 608 368 l 1
 608 272 l 1
 432 272 l 1
 432 96 l 1
 336 96 l 5
 336 272 l 5
 160 272 l 1
 160 368 l 1
 336 368 l 5
EndSplineSet
Validated: 1
EndChar

StartChar: comma
Encoding: 44 44 45
Width: 768
Flags: HW
LayerCount: 2
Fore
SplineSet
336 368 m 1
 432 368 l 1
 432 272 l 1
 336 272 l 1
 336 368 l 1
EndSplineSet
Validated: 1
EndChar

StartChar: hyphen
Encoding: 45 45 46
Width: 768
Flags: HW
LayerCount: 2
Fore
SplineSet
160 368 m 1
 608 368 l 1
 608 272 l 5
 160 272 l 1
 160 368 l 1
EndSplineSet
Validated: 1
EndChar

StartChar: period
Encoding: 46 46 47
Width: 768
Flags: HW
LayerCount: 2
Fore
SplineSet
432 544 m 1
 432 96 l 1
 336 96 l 1
 336 544 l 5
 432 544 l 1
EndSplineSet
Validated: 1
EndChar

StartChar: slash
Encoding: 47 47 48
Width: 768
Flags: HW
LayerCount: 2
Fore
SplineSet
160 0 m 5
 160 42 l 5
 512 640 l 1
 608 640 l 1
 608 598 l 1
 256 0 l 5
 160 0 l 5
EndSplineSet
Validated: 1
EndChar

StartChar: colon
Encoding: 58 58 59
Width: 768
Flags: HW
LayerCount: 2
Fore
SplineSet
336 272 m 1
 432 272 l 1
 432 176 l 1
 336 176 l 1
 336 272 l 1
336 464 m 1
 432 464 l 1
 432 368 l 1
 336 368 l 1
 336 464 l 1
EndSplineSet
Validated: 1
EndChar

StartChar: semicolon
Encoding: 59 59 60
Width: 768
Flags: HW
LayerCount: 2
Fore
SplineSet
336 96 m 5
 432 96 l 5
 432 0 l 5
 336 0 l 5
 336 96 l 5
336 640 m 5
 432 640 l 5
 432 544 l 5
 336 544 l 5
 336 640 l 5
336 368 m 5
 432 368 l 5
 432 272 l 5
 336 272 l 5
 336 368 l 5
EndSplineSet
Validated: 1
EndChar

StartChar: less
Encoding: 60 60 61
Width: 768
Flags: HW
LayerCount: 2
Fore
SplineSet
432 320 m 5
 608 235 l 5
 608 405 l 5
 432 320 l 5
704 96 m 5
 336 272 l 5
 336 368 l 5
 704 544 l 5
 704 96 l 5
EndSplineSet
Validated: 1
EndChar

StartChar: equal
Encoding: 61 61 62
Width: 768
Flags: HW
LayerCount: 2
Fore
SplineSet
160 464 m 5
 608 464 l 5
 608 368 l 5
 160 368 l 5
 160 464 l 5
160 272 m 5
 608 272 l 5
 608 176 l 5
 160 176 l 5
 160 272 l 5
EndSplineSet
Validated: 1
EndChar

StartChar: greater
Encoding: 62 62 63
Width: 768
Flags: HW
LayerCount: 2
Fore
SplineSet
336 320 m 5
 160 405 l 5
 160 235 l 5
 336 320 l 5
64 96 m 5
 64 544 l 5
 432 368 l 5
 432 272 l 5
 64 96 l 5
EndSplineSet
Validated: 1
EndChar

StartChar: question
Encoding: 63 63 64
Width: 768
Flags: HW
LayerCount: 2
Fore
SplineSet
336 544 m 1
 336 640 l 1
 432 640 l 1
 432 544 l 1
 336 544 l 1
336 0 m 1
 336 448 l 1
 432 448 l 1
 432 0 l 1
 336 0 l 1
EndSplineSet
Validated: 1
EndChar

StartChar: A
Encoding: 65 65 66
Width: 768
Flags: HW
LayerCount: 2
Fore
SplineSet
165 368 m 5
 603 368 l 5
 581 469 492 544 384 544 c 4
 276 544 187 469 165 368 c 5
608 272 m 5
 160 272 l 5
 160 0 l 5
 64 0 l 5
 64 125 64 143 64 320 c 4
 64 497 207 640 384 640 c 4
 561 640 704 497 704 320 c 4
 704 143 704 125 704 0 c 5
 608 0 l 5
 608 272 l 5
EndSplineSet
Validated: 1
EndChar

StartChar: C
Encoding: 67 67 68
Width: 768
Flags: HW
LayerCount: 2
Fore
SplineSet
64 640 m 5
 160 640 l 5
 160 368 l 5
 608 368 l 5
 608 640 l 5
 704 640 l 5
 704 0 l 5
 64 0 l 5
 64 640 l 5
608 272 m 5
 160 272 l 5
 160 96 l 5
 608 96 l 5
 608 272 l 5
EndSplineSet
Validated: 1
EndChar

StartChar: E
Encoding: 69 69 70
Width: 768
Flags: HW
LayerCount: 2
Fore
SplineSet
165 272 m 5
 187 171 276 96 384 96 c 4
 508 96 579 96 704 96 c 5
 704 0 l 5
 579 0 561 0 384 0 c 4
 207 0 64 143 64 320 c 4
 64 497 207 640 384 640 c 4
 561 640 579 640 704 640 c 5
 704 544 l 5
 579 544 508 544 384 544 c 4
 276 544 187 469 165 368 c 5
 704 368 l 5
 704 272 l 5
 165 272 l 5
EndSplineSet
Validated: 1
EndChar

StartChar: H
Encoding: 72 72 73
Width: 768
Flags: HW
LayerCount: 2
Fore
SplineSet
64 0 m 5
 64 96 l 5
 608 96 l 5
 608 272 l 5
 64 272 l 5
 64 368 l 5
 608 368 l 5
 608 544 l 5
 64 544 l 5
 64 640 l 5
 704 640 l 5
 704 0 l 5
 64 0 l 5
EndSplineSet
Validated: 1
EndChar

StartChar: I
Encoding: 73 73 74
Width: 768
Flags: HW
LayerCount: 2
Fore
SplineSet
64 320 m 0
 64 497 207 640 384 640 c 0
 561 640 704 497 704 320 c 0
 704 143 561 0 384 0 c 0
 207 0 64 143 64 320 c 0
336 539 m 1
 235 517 160 428 160 320 c 0
 160 295 164 271 171 249 c 1
 336 344 l 1
 336 539 l 1
432 539 m 1
 432 344 l 1
 597 249 l 1
 604 271 608 295 608 320 c 0
 608 428 533 517 432 539 c 1
221 167 m 1
 262 124 319 96 384 96 c 0
 449 96 506 124 547 167 c 1
 384 261 l 1
 221 167 l 1
EndSplineSet
Validated: 1
EndChar

StartChar: L
Encoding: 76 76 77
Width: 768
Flags: HW
LayerCount: 2
Fore
SplineSet
704 0 m 5
 64 0 l 5
 64 640 l 5
 704 640 l 5
 704 544 l 5
 432 544 l 5
 432 96 l 5
 704 96 l 5
 704 0 l 5
336 544 m 5
 160 544 l 5
 160 96 l 5
 336 96 l 5
 336 544 l 5
EndSplineSet
Validated: 1
EndChar

StartChar: N
Encoding: 78 78 79
Width: 768
Flags: HW
LayerCount: 2
Fore
SplineSet
64 640 m 5
 160 640 l 5
 160 96 l 5
 336 96 l 5
 336 640 l 5
 432 640 l 5
 432 96 l 5
 608 96 l 5
 608 640 l 5
 704 640 l 5
 704 0 l 5
 64 0 l 5
 64 640 l 5
EndSplineSet
Validated: 1
EndChar

StartChar: O
Encoding: 79 79 80
Width: 768
Flags: HW
LayerCount: 2
Fore
SplineSet
603 272 m 5
 64 272 l 5
 64 368 l 5
 603 368 l 5
 581 469 492 544 384 544 c 4
 260 544 189 544 64 544 c 5
 64 640 l 5
 189 640 207 640 384 640 c 4
 561 640 704 497 704 320 c 4
 704 143 561 0 384 0 c 4
 207 0 189 0 64 0 c 5
 64 96 l 5
 189 96 260 96 384 96 c 4
 492 96 581 171 603 272 c 5
EndSplineSet
Validated: 1
EndChar

StartChar: S
Encoding: 83 83 84
Width: 768
Flags: HW
LayerCount: 2
Fore
SplineSet
64 0 m 5
 64 640 l 5
 704 640 l 5
 704 0 l 5
 608 0 l 5
 608 272 l 5
 160 272 l 5
 160 0 l 5
 64 0 l 5
608 368 m 5
 608 544 l 5
 160 544 l 5
 160 368 l 5
 608 368 l 5
EndSplineSet
Validated: 1
EndChar

StartChar: T
Encoding: 84 84 85
Width: 768
Flags: HW
LayerCount: 2
Fore
SplineSet
704 0 m 5
 64 0 l 5
 64 640 l 5
 704 640 l 5
 704 544 l 5
 160 544 l 5
 160 368 l 5
 704 368 l 5
 704 272 l 5
 160 272 l 5
 160 96 l 5
 704 96 l 5
 704 0 l 5
EndSplineSet
Validated: 1
EndChar

StartChar: U
Encoding: 85 85 86
Width: 768
Flags: HW
LayerCount: 2
Fore
SplineSet
165 272 m 5
 187 171 276 96 384 96 c 4
 492 96 581 171 603 272 c 5
 165 272 l 5
608 368 m 5
 608 640 l 5
 704 640 l 5
 704 515 704 497 704 320 c 4
 704 143 561 0 384 0 c 4
 207 0 64 143 64 320 c 4
 64 497 64 515 64 640 c 5
 160 640 l 5
 160 368 l 5
 608 368 l 5
EndSplineSet
Validated: 1
EndChar

StartChar: Y
Encoding: 89 89 90
Width: 768
Flags: HW
LayerCount: 2
Fore
SplineSet
384 0 m 4
 207 0 64 143 64 320 c 4
 64 497 207 640 384 640 c 4
 561 640 704 497 704 320 c 4
 704 143 561 0 384 0 c 4
336 272 m 5
 165 272 l 5
 184 186 250 119 336 101 c 5
 336 272 l 5
336 539 m 5
 250 521 184 454 165 368 c 5
 336 368 l 5
 336 539 l 5
432 272 m 5
 432 101 l 5
 518 119 584 186 603 272 c 5
 432 272 l 5
432 539 m 5
 432 368 l 5
 603 368 l 5
 584 454 518 521 432 539 c 5
EndSplineSet
Validated: 1
EndChar

StartChar: Z
Encoding: 90 90 91
Width: 768
Flags: HW
LayerCount: 2
Fore
SplineSet
64 0 m 5
 64 640 l 5
 704 640 l 5
 704 0 l 5
 608 0 l 5
 608 544 l 5
 432 544 l 5
 432 0 l 5
 336 0 l 5
 336 544 l 5
 160 544 l 5
 160 0 l 5
 64 0 l 5
EndSplineSet
Validated: 1
EndChar

StartChar: bracketleft
Encoding: 91 91 92
Width: 768
Flags: HW
LayerCount: 2
Fore
SplineSet
516 640 m 5
 516 544 l 5
 432 544 l 5
 432 96 l 5
 516 96 l 5
 516 0 l 5
 336 0 l 5
 336 640 l 5
 516 640 l 5
EndSplineSet
Validated: 1
EndChar

StartChar: backslash
Encoding: 92 92 93
Width: 768
Flags: HW
LayerCount: 2
Fore
SplineSet
608 0 m 5
 512 0 l 5
 160 598 l 1
 160 640 l 1
 256 640 l 1
 608 42 l 5
 608 0 l 5
EndSplineSet
Validated: 1
EndChar

StartChar: bracketright
Encoding: 93 93 94
Width: 768
Flags: HW
LayerCount: 2
Fore
SplineSet
248 640 m 1
 432 640 l 1
 432 0 l 1
 248 0 l 1
 248 96 l 1
 336 96 l 1
 336 544 l 1
 248 544 l 1
 248 640 l 1
EndSplineSet
Validated: 1
EndChar

StartChar: asciicircum
Encoding: 94 94 95
Width: 768
Flags: HW
LayerCount: 2
Fore
SplineSet
384 544 m 5
 299 368 l 5
 469 368 l 5
 384 544 l 5
608 272 m 5
 160 272 l 5
 336 640 l 5
 432 640 l 5
 608 272 l 5
EndSplineSet
Validated: 1
EndChar

StartChar: underscore
Encoding: 95 95 96
Width: 768
Flags: HW
LayerCount: 2
Fore
SplineSet
64 96 m 5
 704 96 l 5
 704 0 l 1
 64 0 l 1
 64 96 l 5
EndSplineSet
Validated: 1
EndChar

StartChar: a
Encoding: 97 97 98
Width: 768
Flags: HW
LayerCount: 2
Fore
SplineSet
336 539 m 1
 235 517 160 428 160 320 c 0
 160 196 160 125 160 0 c 1
 64 0 l 1
 64 125 64 143 64 320 c 0
 64 497 207 640 384 640 c 0
 561 640 704 497 704 320 c 0
 704 143 704 125 704 0 c 1
 608 0 l 1
 608 125 608 196 608 320 c 0
 608 428 533 517 432 539 c 1
 432 0 l 1
 336 0 l 1
 336 539 l 1
EndSplineSet
Validated: 1
EndChar

StartChar: b
Encoding: 98 98 99
Width: 768
Flags: HW
LayerCount: 2
Fore
SplineSet
384 544 m 4
 260 544 189 544 64 544 c 5
 64 640 l 5
 189 640 207 640 384 640 c 4
 561 640 704 497 704 320 c 4
 704 143 561 0 384 0 c 4
 207 0 189 0 64 0 c 5
 64 96 l 29
 189 96 260 96 384 96 c 4
 508 96 608 196 608 320 c 4
 608 444 508 544 384 544 c 4
EndSplineSet
Validated: 1
EndChar

StartChar: d
Encoding: 100 100 101
Width: 768
Flags: HW
LayerCount: 2
Fore
SplineSet
432 368 m 5
 432 272 l 5
 336 272 l 5
 336 368 l 5
 432 368 l 5
384 544 m 4
 260 544 189 544 64 544 c 5
 64 640 l 5
 189 640 207 640 384 640 c 4
 561 640 704 497 704 320 c 4
 704 143 561 0 384 0 c 4
 207 0 189 0 64 0 c 5
 64 96 l 29
 189 96 260 96 384 96 c 4
 508 96 608 196 608 320 c 4
 608 444 508 544 384 544 c 4
EndSplineSet
Validated: 1
EndChar

StartChar: e
Encoding: 101 101 102
Width: 768
Flags: HW
LayerCount: 2
Fore
SplineSet
336 539 m 5
 235 517 160 428 160 320 c 4
 160 212 235 123 336 101 c 5
 336 539 l 5
432 96 m 5
 704 96 l 5
 704 0 l 5
 579 0 561 0 384 0 c 4
 207 0 64 143 64 320 c 4
 64 497 207 640 384 640 c 4
 561 640 579 640 704 640 c 5
 704 544 l 5
 432 544 l 5
 432 96 l 5
EndSplineSet
Validated: 1
EndChar

StartChar: f
Encoding: 102 102 103
Width: 768
Flags: HW
LayerCount: 2
Fore
SplineSet
336 368 m 5
 432 368 l 5
 432 272 l 5
 336 272 l 5
 336 368 l 5
384 544 m 4
 260 544 160 444 160 320 c 4
 160 196 260 96 384 96 c 4
 508 96 579 96 704 96 c 29
 704 0 l 5
 579 0 561 0 384 0 c 4
 207 0 64 143 64 320 c 4
 64 497 207 640 384 640 c 4
 561 640 579 640 704 640 c 5
 704 544 l 5
 579 544 508 544 384 544 c 4
EndSplineSet
Validated: 1
EndChar

StartChar: g
Encoding: 103 103 104
Width: 768
Flags: HW
LayerCount: 2
Fore
SplineSet
336 368 m 5
 432 368 l 5
 432 272 l 5
 336 272 l 5
 336 368 l 5
704 0 m 5
 64 0 l 5
 64 640 l 5
 704 640 l 5
 704 544 l 5
 160 544 l 5
 160 96 l 5
 704 96 l 5
 704 0 l 5
EndSplineSet
EndChar

StartChar: h
Encoding: 104 104 105
Width: 768
Flags: HW
LayerCount: 2
Fore
SplineSet
608 320 m 0
 608 444 608 515 608 640 c 1
 704 640 l 1
 704 515 704 497 704 320 c 0
 704 143 561 0 384 0 c 0
 207 0 64 143 64 320 c 0
 64 497 64 515 64 640 c 1
 160 640 l 25
 160 515 160 444 160 320 c 0
 160 196 260 96 384 96 c 0
 508 96 608 196 608 320 c 0
EndSplineSet
Validated: 1
EndChar

StartChar: i
Encoding: 105 105 106
Width: 768
Flags: HW
LayerCount: 2
Fore
SplineSet
64 320 m 4
 64 497 207 640 384 640 c 4
 561 640 704 497 704 320 c 4
 704 143 561 0 384 0 c 4
 207 0 64 143 64 320 c 4
336 101 m 1
 336 539 l 1
 235 517 160 428 160 320 c 0
 160 212 235 123 336 101 c 1
432 101 m 1
 533 123 608 212 608 320 c 0
 608 428 533 517 432 539 c 1
 432 101 l 1
EndSplineSet
Validated: 1
EndChar

StartChar: j
Encoding: 106 106 107
Width: 768
Flags: HW
LayerCount: 2
Fore
SplineSet
432 368 m 5
 432 272 l 5
 336 272 l 5
 336 368 l 5
 432 368 l 5
64 0 m 5
 64 96 l 5
 608 96 l 5
 608 544 l 5
 64 544 l 5
 64 640 l 5
 704 640 l 5
 704 0 l 5
 64 0 l 5
EndSplineSet
Validated: 1
EndChar

StartChar: k
Encoding: 107 107 108
Width: 768
Flags: HW
LayerCount: 2
Fore
SplineSet
704 0 m 5
 64 0 l 5
 64 640 l 5
 704 640 l 5
 704 544 l 5
 160 544 l 5
 160 96 l 5
 704 96 l 5
 704 0 l 5
EndSplineSet
Validated: 1
EndChar

StartChar: l
Encoding: 108 108 109
Width: 768
Flags: HW
LayerCount: 2
Fore
SplineSet
432 272 m 5
 336 272 l 5
 336 368 l 5
 432 368 l 5
 432 272 l 5
608 320 m 4
 608 444 608 515 608 640 c 5
 704 640 l 5
 704 515 704 497 704 320 c 4
 704 143 561 0 384 0 c 4
 207 0 64 143 64 320 c 4
 64 497 64 515 64 640 c 5
 160 640 l 29
 160 515 160 444 160 320 c 4
 160 196 260 96 384 96 c 4
 508 96 608 196 608 320 c 4
EndSplineSet
EndChar

StartChar: m
Encoding: 109 109 110
Width: 768
Flags: HW
LayerCount: 2
Fore
SplineSet
432 368 m 5
 432 272 l 5
 336 272 l 5
 336 368 l 5
 432 368 l 5
608 320 m 4
 608 444 508 544 384 544 c 4
 260 544 160 444 160 320 c 4
 160 196 160 125 160 0 c 29
 64 0 l 5
 64 125 64 143 64 320 c 4
 64 497 207 640 384 640 c 4
 561 640 704 497 704 320 c 4
 704 143 704 125 704 0 c 5
 608 0 l 5
 608 125 608 196 608 320 c 4
EndSplineSet
Validated: 1
EndChar

StartChar: n
Encoding: 110 110 111
Width: 768
Flags: HW
LayerCount: 2
Fore
SplineSet
608 320 m 0
 608 444 508 544 384 544 c 0
 260 544 160 444 160 320 c 0
 160 196 160 125 160 0 c 25
 64 0 l 1
 64 125 64 143 64 320 c 0
 64 497 207 640 384 640 c 0
 561 640 704 497 704 320 c 0
 704 143 704 125 704 0 c 1
 608 0 l 5
 608 125 608 196 608 320 c 0
EndSplineSet
Validated: 1
EndChar

StartChar: p
Encoding: 112 112 112
Width: 768
Flags: HW
LayerCount: 2
Fore
SplineSet
704 0 m 5
 608 0 l 5
 608 544 l 5
 160 544 l 5
 160 0 l 5
 64 0 l 5
 64 640 l 5
 704 640 l 5
 704 0 l 5
EndSplineSet
EndChar

StartChar: r
Encoding: 114 114 114
Width: 768
Flags: HW
LayerCount: 2
Fore
SplineSet
64 0 m 5
 64 96 l 5
 608 96 l 5
 608 544 l 5
 64 544 l 5
 64 640 l 5
 704 640 l 5
 704 0 l 5
 64 0 l 5
EndSplineSet
EndChar

StartChar: s
Encoding: 115 115 115
Width: 768
Flags: HW
LayerCount: 2
Fore
SplineSet
384 544 m 4
 260 544 160 444 160 320 c 4
 160 196 260 96 384 96 c 4
 508 96 579 96 704 96 c 29
 704 0 l 5
 579 0 561 0 384 0 c 4
 207 0 64 143 64 320 c 4
 64 497 207 640 384 640 c 4
 561 640 579 640 704 640 c 5
 704 544 l 5
 579 544 508 544 384 544 c 4
EndSplineSet
Validated: 1
EndChar

StartChar: t
Encoding: 116 116 116
Width: 768
Flags: HW
LayerCount: 2
Fore
SplineSet
432 272 m 5
 336 272 l 5
 336 368 l 5
 432 368 l 5
 432 272 l 5
64 640 m 5
 160 640 l 5
 160 96 l 5
 608 96 l 5
 608 640 l 5
 704 640 l 5
 704 0 l 5
 64 0 l 5
 64 640 l 5
EndSplineSet
EndChar

StartChar: u
Encoding: 117 117 117
Width: 768
Flags: HW
LayerCount: 2
Fore
SplineSet
432 101 m 1
 533 123 608 212 608 320 c 0
 608 444 608 515 608 640 c 1
 704 640 l 1
 704 515 704 497 704 320 c 0
 704 143 561 0 384 0 c 0
 207 0 64 143 64 320 c 0
 64 497 64 515 64 640 c 1
 160 640 l 1
 160 515 160 444 160 320 c 0
 160 212 235 123 336 101 c 1
 336 640 l 1
 432 640 l 1
 432 101 l 1
EndSplineSet
Validated: 1
EndChar

StartChar: v
Encoding: 118 118 118
Width: 768
Flags: HW
LayerCount: 2
Fore
SplineSet
704 640 m 5
 704 0 l 5
 64 0 l 5
 64 640 l 5
 160 640 l 5
 160 96 l 5
 608 96 l 5
 608 640 l 5
 704 640 l 5
EndSplineSet
EndChar

StartChar: w
Encoding: 119 119 119
Width: 768
Flags: HW
LayerCount: 2
Fore
SplineSet
160 320 m 0
 160 196 260 96 384 96 c 0
 508 96 608 196 608 320 c 4
 608 444 508 544 384 544 c 0
 260 544 160 444 160 320 c 0
64 320 m 0
 64 497 207 640 384 640 c 0
 561 640 704 497 704 320 c 0
 704 143 561 0 384 0 c 0
 207 0 64 143 64 320 c 0
EndSplineSet
Validated: 1
EndChar

StartChar: x
Encoding: 120 120 120
Width: 768
Flags: HW
LayerCount: 2
Fore
SplineSet
64 0 m 5
 64 96 l 5
 336 96 l 5
 336 544 l 5
 64 544 l 5
 64 640 l 5
 704 640 l 5
 704 0 l 5
 64 0 l 5
432 544 m 5
 432 96 l 5
 608 96 l 5
 608 544 l 5
 432 544 l 5
EndSplineSet
Validated: 1
EndChar

StartChar: y
Encoding: 121 121 121
Width: 768
Flags: HW
LayerCount: 2
Fore
SplineSet
384 0 m 0
 207 0 64 143 64 320 c 0
 64 497 207 640 384 640 c 0
 561 640 704 497 704 320 c 0
 704 143 561 0 384 0 c 0
603 272 m 1
 165 272 l 1
 187 171 276 96 384 96 c 0
 492 96 581 171 603 272 c 1
603 368 m 1
 581 469 492 544 384 544 c 0
 276 544 187 469 165 368 c 1
 603 368 l 1
EndSplineSet
Validated: 1
EndChar

StartChar: z
Encoding: 122 122 122
Width: 768
Flags: HW
LayerCount: 2
Fore
SplineSet
432 368 m 5
 432 272 l 5
 336 272 l 5
 336 368 l 5
 432 368 l 5
64 0 m 5
 64 640 l 5
 704 640 l 5
 704 0 l 5
 608 0 l 5
 608 544 l 5
 160 544 l 5
 160 0 l 5
 64 0 l 5
EndSplineSet
EndChar

